<svg xmlns="http://www.w3.org/2000/svg" viewBox="0 0 960 540" width="960" height="540" role="img" aria-labelledby="svg-title">
<title id="svg-title">Bedrud web meeting interface – dark theme</title>
<desc>A mockup of Bedrud video meeting app on web, showing a 4-person meeting grid with participant avatars, room controls, and navigation.</desc>
  <style>
    @keyframes pulse-border{0%,100%{opacity:.2}50%{opacity:.6}}
    @keyframes blink-dot{0%,100%{opacity:.5}50%{opacity:1}}
    .glow-border{animation:pulse-border 2s ease-in-out infinite}
    .blink-dot{animation:blink-dot 3s ease-in-out infinite}
    .sans{font-family:system-ui,sans-serif}
    .mono{font-family:ui-monospace,SFMono-Regular,monospace}
    .icon-muted{fill:none;stroke:#64748B;stroke-width:1.2}
    .icon-active{fill:none;stroke:#E2E8F0;stroke-width:1.5}
  </style>

<!-- Sidebar -->
<rect width="960" height="540" fill="#020817"/>
<rect width="208" height="540" fill="#0F172A"/>
<line x1="208" y1="0" x2="208" y2="540" stroke="#1E293B"/>

<!-- Brand -->
<rect x="16" y="12" width="24" height="24" rx="6" fill="#6366F1"/>
<text x="28" y="24" text-anchor="middle" fill="#fff" class="sans" font-size="13" font-weight="700" dy="0.35em">B</text>
<text x="50" y="24" fill="#E2E8F0" class="sans" font-size="14" font-weight="600" dy="0.35em">Bedrud</text>

<!-- Nav items -->
<rect x="8" y="60" width="192" height="36" rx="8" fill="#6366F1" fill-opacity="0.1"/>
<g transform="translate(22,72) scale(0.5)">
  <path d="M2.25 12L11.2045 3.04549C11.6438 2.60615 12.3562 2.60615 12.7955 3.04549L21.75 12M4.5 9.75V19.875C4.5 20.4963 5.00368 21 5.625 21H9.75V16.125C9.75 15.5037 10.2537 15 10.875 15H13.125C13.7463 15 14.25 15.5037 14.25 16.125V21H18.375C18.9963 21 19.5 20.4963 19.5 19.875V9.75M8.25 21H16.5" fill="none" stroke="#6366F1" stroke-width="1.5" stroke-linecap="round" stroke-linejoin="round"/>
</g>
<text x="46" y="78" fill="#6366F1" class="sans" font-size="13" dy="0.35em">Home</text>
<g transform="translate(22,112) scale(0.5)">
  <path d="M3.75 6C3.75 4.75736 4.75736 3.75 6 3.75H8.25C9.49264 3.75 10.5 4.75736 10.5 6V8.25C10.5 9.49264 9.49264 10.5 8.25 10.5H6C4.75736 10.5 3.75 9.49264 3.75 8.25V6Z" fill="none" stroke="#64748B" stroke-width="1.5" stroke-linecap="round" stroke-linejoin="round"/>
  <path d="M3.75 15.75C3.75 14.5074 4.75736 13.5 6 13.5H8.25C9.49264 13.5 10.5 14.5074 10.5 15.75V18C10.5 19.2426 9.49264 20.25 8.25 20.25H6C4.75736 20.25 3.75 19.2426 3.75 18V15.75Z" fill="none" stroke="#64748B" stroke-width="1.5" stroke-linecap="round" stroke-linejoin="round"/>
  <path d="M13.5 6C13.5 4.75736 14.5074 3.75 15.75 3.75H18C19.2426 3.75 20.25 4.75736 20.25 6V8.25C20.25 9.49264 19.2426 10.5 18 10.5H15.75C14.5074 10.5 13.5 9.49264 13.5 8.25V6Z" fill="none" stroke="#64748B" stroke-width="1.5" stroke-linecap="round" stroke-linejoin="round"/>
  <path d="M13.5 15.75C13.5 14.5074 14.5074 13.5 15.75 13.5H18C19.2426 13.5 20.25 14.5074 20.25 15.75V18C20.25 19.2426 19.2426 20.25 18 20.25H15.75C14.5074 20.25 13.5 19.2426 13.5 18V15.75Z" fill="none" stroke="#64748B" stroke-width="1.5" stroke-linecap="round" stroke-linejoin="round"/>
</g>
<text x="46" y="118" fill="#64748B" class="sans" font-size="13" dy="0.35em">Rooms</text>
<g transform="translate(22,152) scale(0.5)">
  <path d="M9.59356 3.94014C9.68397 3.39768 10.1533 3.00009 10.7033 3.00009H13.2972C13.8472 3.00009 14.3165 3.39768 14.4069 3.94014L14.6204 5.22119C14.6828 5.59523 14.9327 5.9068 15.2645 6.09045C15.3387 6.13151 15.412 6.17393 15.4844 6.21766C15.8095 6.41393 16.2048 6.47495 16.5604 6.34175L17.7772 5.88587C18.2922 5.69293 18.8712 5.9006 19.1462 6.37687L20.4432 8.6233C20.7181 9.09957 20.6085 9.70482 20.1839 10.0544L19.1795 10.8812C18.887 11.122 18.742 11.4938 18.7491 11.8726C18.7498 11.915 18.7502 11.9575 18.7502 12.0001C18.7502 12.0427 18.7498 12.0852 18.7491 12.1275C18.742 12.5064 18.887 12.8782 19.1795 13.119L20.1839 13.9458C20.6085 14.2953 20.7181 14.9006 20.4432 15.3769L19.1462 17.6233C18.8712 18.0996 18.2922 18.3072 17.7772 18.1143L16.5604 17.6584C16.2048 17.5252 15.8095 17.5862 15.4844 17.7825C15.412 17.8263 15.3387 17.8687 15.2645 17.9097C14.9327 18.0934 14.6828 18.4049 14.6204 18.779L14.4069 20.06C14.3165 20.6025 13.8472 21.0001 13.2972 21.0001H10.7033C10.1533 21.0001 9.68397 20.6025 9.59356 20.06L9.38005 18.779C9.31771 18.4049 9.06774 18.0934 8.73597 17.9097C8.66179 17.8687 8.58847 17.8263 8.51604 17.7825C8.19101 17.5863 7.79568 17.5252 7.44011 17.6584L6.22325 18.1143C5.70826 18.3072 5.12926 18.0996 4.85429 17.6233L3.55731 15.3769C3.28234 14.9006 3.39199 14.2954 3.81657 13.9458L4.82092 13.119C5.11343 12.8782 5.25843 12.5064 5.25141 12.1276C5.25063 12.0852 5.25023 12.0427 5.25023 12.0001C5.25023 11.9575 5.25063 11.915 5.25141 11.8726C5.25843 11.4938 5.11343 11.122 4.82092 10.8812L3.81657 10.0544C3.39199 9.70484 3.28234 9.09958 3.55731 8.62332L4.85429 6.37688C5.12926 5.90061 5.70825 5.69295 6.22325 5.88588L7.4401 6.34176C7.79566 6.47496 8.19099 6.41394 8.51603 6.21767C8.58846 6.17393 8.66179 6.13151 8.73597 6.09045C9.06774 5.9068 9.31771 5.59523 9.38005 5.22119L9.59356 3.94014Z" fill="none" stroke="#64748B" stroke-width="1.5" stroke-linecap="round" stroke-linejoin="round"/>
  <path d="M15 12C15 13.6569 13.6569 15 12 15C10.3431 15 9 13.6569 9 12C9 10.3432 10.3431 9.00001 12 9.00001C13.6569 9.00001 15 10.3432 15 12Z" fill="none" stroke="#64748B" stroke-width="1.5" stroke-linecap="round" stroke-linejoin="round"/>
</g>
<text x="46" y="158" fill="#64748B" class="sans" font-size="13" dy="0.35em">Settings</text>
<g transform="translate(22,192) scale(0.5)">
  <path d="M15.75 6C15.75 8.07107 14.071 9.75 12 9.75C9.9289 9.75 8.24996 8.07107 8.24996 6C8.24996 3.92893 9.9289 2.25 12 2.25C14.071 2.25 15.75 3.92893 15.75 6Z" fill="none" stroke="#64748B" stroke-width="1.5" stroke-linecap="round" stroke-linejoin="round"/>
  <path d="M4.5011 20.1182C4.5714 16.0369 7.90184 12.75 12 12.75C16.0982 12.75 19.4287 16.0371 19.4988 20.1185C17.216 21.166 14.6764 21.75 12.0003 21.75C9.32396 21.75 6.78406 21.1659 4.5011 20.1182Z" fill="none" stroke="#64748B" stroke-width="1.5" stroke-linecap="round" stroke-linejoin="round"/>
</g>
<text x="46" y="198" fill="#64748B" class="sans" font-size="13" dy="0.35em">Profile</text>

<!-- Header bar -->
<rect x="208" width="752" height="40" fill="#0F172A"/>
<line x1="208" y1="40" x2="960" y2="40" stroke="#1E293B"/>
<text x="232" y="20" fill="#E2E8F0" class="mono" font-size="14" dy="0.35em">standup</text>
<rect x="308" y="10" width="22" height="20" rx="10" fill="#6366F1" fill-opacity="0.1"/>
<text x="319" y="20" text-anchor="middle" fill="#6366F1" class="sans" font-size="11" font-weight="600" dy="0.35em">4</text>
<text x="940" y="20" text-anchor="end" fill="#64748B" class="mono" font-size="12" dy="0.35em">32:15</text>

<!-- Meeting grid -->
<rect x="224" y="52" width="352" height="210" rx="12" fill="#0F172A"/>
<rect x="221" y="49" width="358" height="216" rx="14" fill="none" stroke="#6366F1" stroke-width="3" opacity=".4" class="glow-border"/>
<circle cx="400" cy="148" r="28" fill="#6366F1"/>
<text x="400" y="148" text-anchor="middle" fill="#fff" class="sans" font-size="16" font-weight="600" dy="0.35em">AB</text>
<rect x="232" y="238" width="80" height="20" rx="4" fill="#020817" opacity=".75"/>
  <text x="240" y="248" fill="#E2E8F0" class="sans" font-size="12" dy="0.35em">Alice B.</text>
  <circle cx="564" cy="64" r="4" fill="#22C55E" class="blink-dot"/>

<!-- Participant tiles -->
<rect x="592" y="52" width="352" height="210" rx="12" fill="#0F172A" stroke="#1E293B"/>
<circle cx="768" cy="148" r="28" fill="#6366F1"/>
<text x="768" y="148" text-anchor="middle" fill="#fff" class="sans" font-size="16" font-weight="600" dy="0.35em">CD</text>
<rect x="600" y="238" width="72" height="20" rx="4" fill="#020817" opacity=".75"/>
<text x="608" y="248" fill="#E2E8F0" class="sans" font-size="12" dy="0.35em">Chris D.</text>
<rect x="224" y="278" width="352" height="210" rx="12" fill="#0F172A" stroke="#1E293B"/>
<circle cx="400" cy="374" r="28" fill="#6366F1"/>
<text x="400" y="374" text-anchor="middle" fill="#fff" class="sans" font-size="16" font-weight="600" dy="0.35em">EF</text>
<rect x="232" y="464" width="60" height="20" rx="4" fill="#020817" opacity=".75"/>
<text x="240" y="474" fill="#E2E8F0" class="sans" font-size="12" dy="0.35em">Eve F.</text>
<rect x="550" y="462" width="22" height="22" rx="4" fill="#020817" opacity=".75"/>
<g transform="translate(555.24,467.24) scale(0.48)">
  <path d="M12 18.75C15.3137 18.75 18 16.0637 18 12.75V11.25M12 18.75C8.68629 18.75 6 16.0637 6 12.75V11.25M12 18.75V22.5M8.25 22.5H15.75M12 15.75C10.3431 15.75 9 14.4069 9 12.75V4.5C9 2.84315 10.3431 1.5 12 1.5C13.6569 1.5 15 2.84315 15 4.5V12.75C15 14.4069 13.6569 15.75 12 15.75Z" fill="none" stroke="#64748B" stroke-width="2" stroke-linecap="round" stroke-linejoin="round"/>
  <line x1="2" y1="2" x2="22" y2="22" stroke="#EF4444" stroke-width="2" stroke-linecap="round"/>
</g>
<rect x="592" y="278" width="352" height="210" rx="12" fill="#0F172A" stroke="#1E293B"/>
<circle cx="768" cy="374" r="28" fill="#6366F1"/>
<text x="768" y="374" text-anchor="middle" fill="#fff" class="sans" font-size="16" font-weight="600" dy="0.35em">YU</text>
<rect x="600" y="464" width="48" height="20" rx="4" fill="#020817" opacity=".75"/>
<text x="608" y="474" fill="#E2E8F0" class="sans" font-size="12" dy="0.35em">You</text>

<!-- Controls bar -->
<rect x="404" y="496" width="360" height="40" rx="20" fill="#0F172A" fill-opacity=".92" stroke="#1E293B"/>
<g transform="translate(439.04,509.04) scale(0.58)">
  <path d="M12 18.75C15.3137 18.75 18 16.0637 18 12.75V11.25M12 18.75C8.68629 18.75 6 16.0637 6 12.75V11.25M12 18.75V22.5M8.25 22.5H15.75M12 15.75C10.3431 15.75 9 14.4069 9 12.75V4.5C9 2.84315 10.3431 1.5 12 1.5C13.6569 1.5 15 2.84315 15 4.5V12.75C15 14.4069 13.6569 15.75 12 15.75Z" fill="none" stroke="#E2E8F0" stroke-width="2" stroke-linecap="round" stroke-linejoin="round"/>
</g>
<g transform="translate(493.04,509.04) scale(0.58)">
  <path d="M15.75 10.5L20.4697 5.78033C20.9421 5.30786 21.75 5.64248 21.75 6.31066V17.6893C21.75 18.3575 20.9421 18.6921 20.4697 18.2197L15.75 13.5M4.5 18.75H13.5C14.7426 18.75 15.75 17.7426 15.75 16.5V7.5C15.75 6.25736 14.7426 5.25 13.5 5.25H4.5C3.25736 5.25 2.25 6.25736 2.25 7.5V16.5C2.25 17.7426 3.25736 18.75 4.5 18.75Z" fill="none" stroke="#E2E8F0" stroke-width="2" stroke-linecap="round" stroke-linejoin="round"/>
</g>
<g transform="translate(547.04,509.04) scale(0.58)">
  <path d="M3 16.5V18.75C3 19.9926 4.00736 21 5.25 21H18.75C19.9926 21 21 19.9926 21 18.75V16.5M7.5 7.5L12 3M12 3L16.5 7.5M12 3V16.5" fill="none" stroke="#E2E8F0" stroke-width="2" stroke-linecap="round" stroke-linejoin="round"/>
</g>
<g transform="translate(601.04,509.04) scale(0.58)">
  <path d="M8.625 9.75C8.625 9.95711 8.45711 10.125 8.25 10.125C8.04289 10.125 7.875 9.95711 7.875 9.75C7.875 9.54289 8.04289 9.375 8.25 9.375C8.45711 9.375 8.625 9.54289 8.625 9.75ZM8.625 9.75H8.25M12.375 9.75C12.375 9.95711 12.2071 10.125 12 10.125C11.7929 10.125 11.625 9.95711 11.625 9.75C11.625 9.54289 11.7929 9.375 12 9.375C12.2071 9.375 12.375 9.54289 12.375 9.75ZM12.375 9.75H12M16.125 9.75C16.125 9.95711 15.9571 10.125 15.75 10.125C15.5429 10.125 15.375 9.95711 15.375 9.75C15.375 9.54289 15.5429 9.375 15.75 9.375C15.9571 9.375 16.125 9.54289 16.125 9.75ZM16.125 9.75H15.75M2.25 12.7593C2.25 14.3604 3.37341 15.754 4.95746 15.987C6.04357 16.1467 7.14151 16.27 8.25 16.3556V21L12.4335 16.8165C12.6402 16.6098 12.9193 16.4923 13.2116 16.485C15.1872 16.4361 17.1331 16.2678 19.0425 15.9871C20.6266 15.7542 21.75 14.3606 21.75 12.7595V6.74056C21.75 5.13946 20.6266 3.74583 19.0425 3.51293C16.744 3.17501 14.3926 3 12.0003 3C9.60776 3 7.25612 3.17504 4.95747 3.51302C3.37342 3.74593 2.25 5.13956 2.25 6.74064V12.7593Z" fill="none" stroke="#E2E8F0" stroke-width="2" stroke-linecap="round" stroke-linejoin="round"/>
</g>
<g transform="translate(655.04,509.04) scale(0.58)">
  <path d="M18 18.72C18.24 18.74 18.5 18.75 18.75 18.75C19.8 18.75 20.81 18.57 21.74 18.24C21.75 18.16 21.75 18.08 21.75 18C21.75 16.34 20.41 15 18.75 15C18.12 15 17.54 15.19 17.06 15.52M18 18.72C18 18.73 18 18.74 18 18.75C18 18.98 17.99 19.2 17.96 19.42C16.21 20.42 14.17 21 12 21C9.83 21 7.79 20.42 6.04 19.42C6.01 19.2 6 18.98 6 18.75C6 18.74 6 18.73 6 18.72M18 18.72C17.99 17.54 17.65 16.45 17.06 15.52M17.06 15.52C15.99 13.86 14.13 12.75 12 12.75C9.87 12.75 8.01 13.85 6.94 15.52M6.94 15.52C6.46 15.19 5.88 15 5.25 15C3.59 15 2.25 16.34 2.25 18C2.25 18.08 2.25 18.16 2.26 18.24C3.2 18.57 4.2 18.75 5.25 18.75C5.5 18.75 5.75 18.74 6 18.72M6.94 15.52C6.35 16.45 6.01 17.54 6 18.72M15 6.75C15 8.41 13.66 9.75 12 9.75C10.34 9.75 9 8.41 9 6.75C9 5.09 10.34 3.75 12 3.75C13.66 3.75 15 5.09 15 6.75ZM21 9.75C21 10.99 19.99 12 18.75 12C17.51 12 16.5 10.99 16.5 9.75C16.5 8.51 17.51 7.5 18.75 7.5C19.99 7.5 21 8.51 21 9.75ZM7.5 9.75C7.5 10.99 6.49 12 5.25 12C4.01 12 3 10.99 3 9.75C3 8.51 4.01 7.5 5.25 7.5C6.49 7.5 7.5 8.51 7.5 9.75Z" fill="none" stroke="#E2E8F0" stroke-width="2" stroke-linecap="round" stroke-linejoin="round"/>
</g>
<rect x="710" y="504" width="38" height="24" rx="8" fill="#EF4444"/>
<g transform="translate(722.4,509.4) scale(0.55)">
  <path d="M15.75 3.75L18 6M18 6L20.25 8.25M18 6L20.25 3.75M18 6L15.75 8.25M17.25 21.75C8.96573 21.75 2.25 15.0343 2.25 6.75V4.5C2.25 3.25736 3.25736 2.25 4.5 2.25H5.87163C6.38785 2.25 6.83783 2.60133 6.96304 3.10215L8.06883 7.52533C8.17861 7.96445 8.01453 8.4266 7.65242 8.69818L6.3588 9.6684C5.98336 9.94998 5.81734 10.437 5.97876 10.8777C7.19015 14.1846 9.81539 16.8098 13.1223 18.0212C13.563 18.1827 14.05 18.0166 14.3316 17.6412L15.3018 16.3476C15.5734 15.9855 16.0355 15.8214 16.4747 15.9312L20.8979 17.037C21.3987 17.1622 21.75 17.6121 21.75 18.1284V19.5C21.75 20.7426 20.7426 21.75 19.5 21.75H17.25Z" fill="none" stroke="#fff" stroke-width="2" stroke-linecap="round" stroke-linejoin="round"/>
</g>
</svg>
